<svg width="26" height="26" viewBox="0 0 33 33" fill="none" xmlns="http://www.w3.org/2000/svg">
<g id="ux/paper-prototype">
<path id="Vector" d="M27.3636 16.7631V13.237L25.6005 15L27.3636 16.7631ZM26.3993 17.7273L24.6363 15.9643L22.8733 17.7273H26.3993ZM21.909 13.237V16.7631L23.672 15L21.909 13.237ZM22.8733 12.2727L24.6363 14.0358L26.3993 12.2727H22.8733ZM11.9642 12.2727L13.7272 14.0358L15.4902 12.2727H11.9642ZM10.9999 13.237V16.7631L12.763 15L10.9999 13.237ZM16.4545 16.7631V13.237L14.6914 15L16.4545 16.7631ZM15.4902 17.7273L13.7272 15.9643L11.9642 17.7273H15.4902ZM1.45447 24.5455V8.86366C1.45447 5.47464 4.20181 2.72729 7.59083 2.72729C7.93174 2.72729 8.27265 2.95457 8.27265 3.40911V8.18184H30.7726C31.1492 8.18184 31.4545 8.4871 31.4545 8.86366V29.3182C31.4545 29.6948 31.1492 30 30.7726 30H6.90901C3.89655 30 1.45447 27.5579 1.45447 24.5455ZM2.8181 20.9375C3.81757 19.8051 5.27989 19.0909 6.90901 19.0909V4.13926C4.59609 4.4701 2.8181 6.45925 2.8181 8.86366V20.9375ZM8.27265 9.54548V19.7727C8.27265 20.1493 7.96739 20.4546 7.59083 20.4546H6.90901C4.64967 20.4546 2.8181 22.2861 2.8181 24.5455C2.8181 26.8048 4.64967 28.6364 6.90901 28.6364H30.0908V9.54548H8.27265ZM11.6817 10.9091H15.7726C16.9023 10.9091 17.8181 11.8249 17.8181 12.9546V17.0455C17.8181 18.1751 16.9023 19.0909 15.7726 19.0909H11.6817C10.5521 19.0909 9.63629 18.1751 9.63629 17.0455V12.9546C9.63629 11.8249 10.5521 10.9091 11.6817 10.9091ZM26.6817 10.9091C27.8114 10.9091 28.7272 11.8249 28.7272 12.9546V17.0455C28.7272 18.1751 27.8114 19.0909 26.6817 19.0909H22.5908C21.4612 19.0909 20.5454 18.1751 20.5454 17.0455V12.9546C20.5454 11.8249 21.4612 10.9091 22.5908 10.9091H26.6817ZM10.3181 23.1818C9.94155 23.1818 9.63629 22.8766 9.63629 22.5C9.63629 22.1235 9.94155 21.8182 10.3181 21.8182H19.8636C20.2401 21.8182 20.5454 22.1235 20.5454 22.5C20.5454 22.8766 20.2401 23.1818 19.8636 23.1818H10.3181ZM10.3181 25.9091C9.94155 25.9091 9.63629 25.6039 9.63629 25.2273C9.63629 24.8507 9.94155 24.5455 10.3181 24.5455H21.2272C21.6038 24.5455 21.909 24.8507 21.909 25.2273C21.909 25.6039 21.6038 25.9091 21.2272 25.9091H10.3181Z" fill="white"/>
</g>
</svg>
