<svg width="28" height="28" viewBox="0 0 24 24" fill="none" xmlns="http://www.w3.org/2000/svg">
<g clip-path="url(#clip0_446_1127)">
<path d="M13.1545 12.5758C13.5561 13.0213 13.7879 13.6061 13.7879 14.2244V16.0228C13.7879 17.3825 12.6855 18.4849 11.3258 18.4849H2.46212C1.10233 18.4849 0 17.3825 0 16.0228V14.2246C0 13.6062 0.231864 13.0214 0.633528 12.5758H0.492424C0.220466 12.5758 0 12.3553 0 12.0834C0 11.8114 0.220466 11.5909 0.492424 11.5909H2.12884L4.14003 10.4684C3.40856 9.7532 2.95455 8.75539 2.95455 7.65154C2.95455 5.47587 4.71827 3.71214 6.89394 3.71214C9.06961 3.71214 10.8333 5.47587 10.8333 7.65154C10.8333 7.7354 10.8307 7.81865 10.8256 7.90121L11.3548 7.35843C11.0259 6.8821 10.8333 6.30446 10.8333 5.68184C10.8333 4.05009 12.1561 2.72729 13.7879 2.72729C15.4196 2.72729 16.7424 4.05009 16.7424 5.68184C16.7424 6.3037 16.5503 6.88068 16.2222 7.35668L16.226 7.36056L18.0139 9.19653C18.4616 9.65625 18.7121 10.2726 18.7121 10.9143V11.5909H19.2045C19.4765 11.5909 19.697 11.8114 19.697 12.0834C19.697 12.3553 19.4765 12.5758 19.2045 12.5758H13.1545ZM11.6595 11.5909H17.7273V10.9143C17.7273 10.5293 17.577 10.1595 17.3084 9.88363L15.5362 8.06383C15.0466 8.42376 14.4421 8.63639 13.7879 8.63639C13.1344 8.63639 12.5305 8.42425 12.0413 8.06509L10.2681 9.88369C10.0613 10.0957 10.0333 10.1254 9.97871 10.1941C9.88471 10.3124 9.85148 10.4004 9.84868 10.58L11.6595 11.5909ZM11.0727 12.3913L8.77962 11.1111C8.21957 11.4171 7.57706 11.5909 6.89394 11.5909C6.21102 11.5909 5.56869 11.4172 5.00875 11.1114L1.74215 12.9346C1.27459 13.1956 0.984848 13.6891 0.984848 14.2246V16.0228C0.984848 16.8386 1.64625 17.5 2.46212 17.5H11.3258C12.1416 17.5 12.803 16.8386 12.803 16.0228V14.2244C12.803 13.689 12.5133 13.1955 12.0459 12.9346L11.3966 12.5721C11.2659 12.5561 11.1511 12.489 11.0727 12.3913ZM6.89394 10.6061C8.52569 10.6061 9.84848 9.28329 9.84848 7.65154C9.84848 6.01979 8.52569 4.69699 6.89394 4.69699C5.26219 4.69699 3.93939 6.01979 3.93939 7.65154C3.93939 9.28329 5.26219 10.6061 6.89394 10.6061ZM13.7879 7.65154C14.8757 7.65154 15.7576 6.76967 15.7576 5.68184C15.7576 4.59401 14.8757 3.71214 13.7879 3.71214C12.7 3.71214 11.8182 4.59401 11.8182 5.68184C11.8182 6.76967 12.7 7.65154 13.7879 7.65154Z" fill="white" stroke="white" stroke-width="0.5"/>
</g>
<defs>
<clipPath id="clip0_446_1127">
<rect width="23.6364" height="23.6364" fill="white"/>
</clipPath>
</defs>
</svg>
