<svg width="24" height="22" viewBox="0 0 24 22" fill="none" xmlns="http://www.w3.org/2000/svg">
<path d="M16.7424 5.45454V14.7993L18.2197 16.173L19.697 14.7993V5.45454H16.7424ZM16.7424 4.54545H19.697V2.74065H16.7424V4.54545ZM20.6818 6.36363V14.9866C20.6818 15.1066 20.6304 15.2217 20.5389 15.3068L18.5692 17.1384C18.3766 17.3175 18.0628 17.3175 17.8702 17.1384L15.9005 15.3068C15.809 15.2217 15.7576 15.1066 15.7576 14.9866V12.7273H15.2652C14.4493 12.7273 13.7879 12.1167 13.7879 11.3636V8.63636C13.7879 7.88324 14.4493 7.27272 15.2652 7.27272H15.7576V6.36363H5.90911V13.1818C5.90911 13.4329 5.68864 13.6364 5.41668 13.6364H4.92426C3.29251 13.6364 1.96971 14.8574 1.96971 16.3636C1.96971 17.8699 3.29251 19.0909 4.92426 19.0909H21.6667V6.36363H20.6818ZM20.6818 5.45454H22.1591C22.4311 5.45454 22.6515 5.65805 22.6515 5.90909V19.5454C22.6515 19.7965 22.4311 20 22.1591 20H4.92426C2.74859 20 0.984863 18.3719 0.984863 16.3636V5.90909C0.984863 3.64974 2.96906 1.81818 5.41668 1.81818C5.68864 1.81818 5.90911 2.02168 5.90911 2.27272V5.45454H15.7576V2.2861C15.7576 2.03506 15.9781 1.83156 16.25 1.83156H20.1894C20.4614 1.83156 20.6818 2.03506 20.6818 2.2861V5.45454ZM15.7576 8.18181H15.2652C14.9932 8.18181 14.7727 8.38532 14.7727 8.63636V11.3636C14.7727 11.6147 14.9932 11.8182 15.2652 11.8182H15.7576V8.18181ZM1.96971 13.9583C2.69155 13.2034 3.74767 12.7273 4.92426 12.7273V2.75949C3.25381 2.98005 1.96971 4.30614 1.96971 5.90909V13.9583ZM8.37123 7.27272H11.3258C12.1416 7.27272 12.803 7.88324 12.803 8.63636V11.3636C12.803 12.1167 12.1416 12.7273 11.3258 12.7273H8.37123C7.55535 12.7273 6.89395 12.1167 6.89395 11.3636V8.63636C6.89395 7.88324 7.55535 7.27272 8.37123 7.27272ZM8.37123 8.18181C8.09927 8.18181 7.8788 8.38532 7.8788 8.63636V11.3636C7.8788 11.6147 8.09927 11.8182 8.37123 11.8182H11.3258C11.5977 11.8182 11.8182 11.6147 11.8182 11.3636V8.63636C11.8182 8.38532 11.5977 8.18181 11.3258 8.18181H8.37123ZM7.38638 15.4545C7.11442 15.4545 6.89395 15.251 6.89395 15C6.89395 14.749 7.11442 14.5454 7.38638 14.5454H14.2803C14.5523 14.5454 14.7727 14.749 14.7727 15C14.7727 15.251 14.5523 15.4545 14.2803 15.4545H7.38638ZM7.38638 17.2727C7.11442 17.2727 6.89395 17.0692 6.89395 16.8182C6.89395 16.5671 7.11442 16.3636 7.38638 16.3636H15.2652C15.5371 16.3636 15.7576 16.5671 15.7576 16.8182C15.7576 17.0692 15.5371 17.2727 15.2652 17.2727H7.38638Z" fill="white" stroke="white" stroke-width="0.5"/>
</svg>
