<svg width="220" height="84" viewBox="0 0 220 84" fill="none" xmlns="http://www.w3.org/2000/svg">
<rect width="220" height="84" fill="#CFCCCC"/>
<g id="Menu" filter="url(#filter0_d_125_199)">
<rect width="1900" height="102.453" transform="translate(-93 -7)" fill="white"/>
<g id="logo.svg">
<g id="logo.svg_2">
<g id="Group">
<path id="Vector" d="M75.0871 18.5435C75.0871 18.6557 75.003 18.768 74.8908 18.768C74.5541 18.8521 74.2175 19.0485 73.993 19.301C73.0953 19.8901 72.3379 20.7037 71.7768 21.6294C71.7207 21.8539 71.6365 22.0502 71.4963 22.2186C71.4963 22.2466 71.4682 22.2466 71.4682 22.3588L71.356 22.6674L71.2718 22.8077C71.1596 22.948 71.2718 23.2004 71.0755 23.3407C71.1035 23.5371 70.9632 23.6493 70.9632 23.9018C70.9632 24.0421 70.851 24.1823 70.851 24.3506C70.8791 24.519 70.8791 24.6873 70.851 24.8556C70.851 24.8837 70.823 24.9398 70.7388 24.9398C70.6546 24.9398 70.5985 24.9117 70.5424 24.8556C70.4022 24.5751 70.2619 24.3226 70.2058 24.014C70.2058 23.9298 70.2058 23.9018 70.1777 23.8737C69.8411 23.1163 69.6167 22.443 69.1959 21.7697C69.0556 21.4892 68.8592 21.2086 68.6348 20.9561C68.3262 20.6195 67.5126 19.8901 67.0077 19.8901C66.8113 19.8901 66.643 19.834 66.4746 19.7498C66.1941 19.5815 65.8855 19.4693 65.5769 19.4132C65.5489 19.4132 65.5489 19.4132 65.4928 19.3851C65.4366 19.3571 65.4928 19.2729 65.5208 19.2449C65.9416 19.1046 66.3624 18.9363 66.7552 18.7118C67.176 18.5155 67.4004 18.263 67.8212 18.1227C68.3262 17.8141 68.747 17.3372 69.1117 16.8322C69.1959 16.72 69.252 16.6078 69.3081 16.4956L69.7008 15.4857C69.8411 15.2051 69.9252 14.9526 69.9814 14.6441C70.1216 14.2794 70.2058 13.8585 70.2619 13.4658C70.3461 13.4939 70.4022 13.55 70.4583 13.6061V13.9988C70.4583 14.1952 70.4302 14.4196 70.5705 14.5599C70.5424 14.7563 70.5985 14.9807 70.7108 15.121L70.851 15.654C70.9352 15.9345 71.0755 16.1309 71.1877 16.4114C71.384 16.6078 71.5243 16.8603 71.7207 17.0567C72.0012 17.3653 72.3098 17.6178 72.6745 17.8702C72.7867 17.8983 72.8148 18.0666 72.9551 18.0666C73.0953 18.0666 73.2356 18.2069 73.4039 18.1788C73.5161 18.2069 73.6283 18.2349 73.7406 18.291H74.0772C74.2175 18.3191 74.3858 18.4313 74.5822 18.4033C74.7785 18.3752 74.9188 18.5155 75.1152 18.5155C75.1152 18.4874 75.1152 18.4874 75.0871 18.5435Z" fill="url(#paint0_linear_125_199)"/>
<path id="Vector_2" d="M27.4518 47.3267C27.4518 47.4389 27.3957 47.523 27.2835 47.523C26.9749 47.6072 26.6944 47.7475 26.47 48C25.6564 48.5049 25.0112 49.2343 24.5343 50.0198C24.4781 50.2162 24.422 50.3845 24.3098 50.5528C24.3098 50.5809 24.2818 50.5809 24.2818 50.6931L24.1696 50.9736L24.1135 51.1139C24.0012 51.2542 24.1135 51.4506 23.9451 51.5908C23.9732 51.7591 23.8329 51.8714 23.8329 52.0958C23.8329 52.2361 23.7207 52.3202 23.7207 52.4885C23.7488 52.6288 23.7488 52.7691 23.7207 52.9094C23.7207 52.9374 23.6926 52.9655 23.6085 52.9655C23.5524 52.9655 23.4963 52.9374 23.4402 52.9094C23.3279 52.6849 23.2157 52.4324 23.1316 52.1519C23.1316 52.0958 23.1316 52.0397 23.1035 52.0116C22.7949 51.3664 22.5985 50.7492 22.2338 50.132C22.0936 49.8515 21.9253 49.6271 21.7289 49.4307C21.4483 49.1221 20.747 48.5049 20.2981 48.5049C20.1298 48.5049 19.9615 48.4488 19.8212 48.3646C19.5407 48.2244 19.3163 48.0841 19.0077 48.0561C18.9796 48.0561 18.9796 48.0561 18.9516 48.028C18.9235 47.9999 18.9516 47.9158 18.9796 47.8877C19.3443 47.7755 19.7371 47.6072 20.0457 47.4108C20.4384 47.2425 20.6067 47.0181 20.9714 46.8778C21.4203 46.5973 21.813 46.2326 22.0655 45.7837C22.1216 45.6995 22.1777 45.5873 22.2338 45.4751L22.5705 44.5774C22.6827 44.353 22.7669 44.1005 22.7949 43.8199C22.9352 43.4833 22.9913 43.1467 23.0755 42.81C23.1316 42.8381 23.2157 42.8942 23.2438 42.9503V43.2869C23.2438 43.4552 23.2157 43.6797 23.356 43.7919C23.3279 43.9602 23.3841 44.1566 23.4963 44.2969L23.6365 44.7738C23.7207 44.9982 23.8329 45.1946 23.9451 45.391C24.1135 45.5593 24.2537 45.7837 24.422 45.952C24.7026 46.2326 24.9551 46.457 25.2637 46.6534C25.3759 46.6814 25.4039 46.8217 25.4881 46.8217C25.5722 46.8217 25.7125 46.962 25.8808 46.9339C25.993 46.962 26.0772 46.99 26.1894 47.0461H26.498C26.6383 47.0742 26.7786 47.1864 26.9188 47.1303C27.0871 47.0742 27.2274 47.2425 27.3957 47.2425C27.508 47.2425 27.508 47.2986 27.4518 47.3267Z" fill="url(#paint1_linear_125_199)"/>
<path id="Vector_3" d="M201.273 29.0076C201.273 29.0917 201.217 29.1478 201.132 29.1759C200.852 29.232 200.656 29.3723 200.487 29.5686C199.842 29.9894 199.309 30.5505 198.916 31.2238C198.888 31.3641 198.804 31.5324 198.72 31.6446C198.72 31.6727 198.692 31.6727 198.692 31.7568L198.608 31.9813L198.551 32.0935C198.467 32.2057 198.551 32.374 198.411 32.4862C198.439 32.6265 198.327 32.7107 198.327 32.879C198.327 32.9912 198.243 33.0754 198.243 33.2156C198.243 33.3278 198.243 33.4401 198.243 33.5523C198.243 33.5803 198.215 33.6084 198.159 33.6084C198.103 33.6084 198.047 33.5803 198.018 33.5523C197.934 33.3559 197.85 33.1595 197.738 32.9631C197.738 32.907 197.738 32.879 197.71 32.8509C197.429 32.346 197.317 31.869 197.009 31.336C196.896 31.1397 196.784 30.9433 196.616 30.775C196.391 30.4944 195.774 29.9894 195.466 29.9894C195.325 29.9894 195.185 29.9614 195.073 29.8772C194.876 29.765 194.652 29.6809 194.428 29.5967C194.4 29.5967 194.4 29.5967 194.371 29.5686C194.343 29.5406 194.371 29.4845 194.4 29.4564C194.708 29.3442 194.989 29.232 195.269 29.0637C195.578 28.9234 195.718 28.727 196.055 28.6429C196.419 28.4184 196.728 28.1098 196.952 27.7452C197.009 27.661 197.065 27.5768 197.093 27.4646L197.373 26.7072C197.485 26.5108 197.542 26.3144 197.57 26.118C197.682 25.8375 197.738 25.557 197.766 25.2764C197.822 25.3045 197.878 25.3325 197.906 25.3886V25.6692C197.906 25.8094 197.878 25.9778 197.99 26.09C197.962 26.2302 198.018 26.3705 198.103 26.4827L198.215 26.8755C198.299 27.0438 198.355 27.2121 198.495 27.3805C198.636 27.5207 198.776 27.7171 198.888 27.8293C199.085 28.0537 199.309 28.2501 199.561 28.3904C199.646 28.4184 199.674 28.5307 199.758 28.5307C199.842 28.5307 199.954 28.6429 200.094 28.6148C200.179 28.6429 200.263 28.6429 200.375 28.699H200.656C200.768 28.727 200.88 28.8112 200.992 28.7831C201.132 28.7551 201.273 28.8673 201.385 28.8673C201.525 28.9234 201.301 28.9795 201.273 29.0076Z" fill="url(#paint2_linear_125_199)"/>
<path id="Vector_4" d="M156.892 33.1595C153.049 34.7866 150.916 39.2752 151.87 43.4833C152.431 45.952 153.666 47.9438 155.966 49.066C162.39 52.18 168.815 47.6353 168.759 41.0987C168.674 33.4681 161.745 31.0555 156.892 33.1595ZM163.541 46.0642C162.25 48.3085 159.557 48.561 157.846 46.5973C157.032 45.6154 156.499 44.4652 156.303 43.1747C155.882 41.1829 155.742 39.2191 156.415 37.2554C157.032 35.4319 158.407 34.478 160.146 34.6183C161.577 34.7025 162.447 35.516 163.12 36.6662C163.961 38.0689 164.41 40.0327 164.41 42.1087C164.494 43.4833 164.186 44.8299 163.541 46.0642Z" fill="url(#paint3_linear_125_199)"/>
<path id="Vector_5" d="M135.992 32.9912C136.272 32.5984 136.637 32.2337 137.058 31.9813C137.563 31.6446 138.124 31.3641 138.713 31.1397C139.499 30.9152 140.284 30.775 141.126 30.7469C141.827 30.7188 142.556 30.6627 143.258 30.6066C144.015 30.5505 144.604 30.4944 145.081 30.4664C145.53 30.4383 145.979 30.3542 146.456 30.2419C146.764 30.1297 147.073 29.9614 147.354 29.7931C147.634 29.5967 147.887 29.3723 148.111 29.0917L148.812 28.2501C149.177 27.8293 149.486 27.3805 149.794 26.9035C150.103 26.4266 150.44 25.9497 150.776 25.4728L149.794 24.6873C149.514 25.08 149.149 25.4447 148.728 25.6692C148.307 25.8375 147.887 25.9497 147.41 25.9778C146.821 26.0339 145.923 26.0619 144.632 26.118L141.406 26.2583C139.751 26.3144 138.124 26.9035 136.862 27.9696C135.599 28.9234 134.645 30.2419 134.056 31.6727C133.551 32.907 133.158 34.1414 132.822 35.4038C132.513 36.8346 132.373 38.3214 132.401 39.7802C132.373 41.3232 132.597 42.8942 133.102 44.4091C133.467 45.4471 134.028 46.4289 134.757 47.2986C135.375 48.0561 136.188 48.6452 137.058 49.0379C143.482 52.1519 149.906 47.6072 149.85 41.0707C149.822 33.4401 142.893 31.0555 137.984 33.1595C136.665 33.7206 135.543 34.5903 134.673 35.7124C134.842 35.1233 135.038 34.5622 135.319 34.0011C135.515 33.6925 135.711 33.3278 135.992 32.9912ZM137.535 37.2554C138.152 35.4319 139.527 34.478 141.266 34.6183C142.697 34.7025 143.566 35.516 144.24 36.6662C145.081 38.0689 145.53 40.0327 145.53 42.1087C145.614 43.5114 145.306 44.8579 144.66 46.0642C143.37 48.3085 140.677 48.561 138.966 46.5973C138.152 45.6154 137.619 44.4652 137.423 43.1747C137.002 41.1829 136.833 39.1911 137.535 37.2554Z" fill="url(#paint4_linear_125_199)"/>
<path id="Vector_6" d="M190.164 48.5049C189.182 47.9438 188.621 46.8778 188.677 45.7276C188.677 44.7457 188.649 43.7358 188.649 42.7539C188.649 41.0146 188.649 38.3775 188.677 37.4517C188.621 36.3296 189.21 35.2355 190.164 34.6744C190.472 34.478 190.668 34.1414 190.668 33.7767C190.584 33.4962 190.135 33.3278 189.799 33.1595C189.659 33.1034 189.49 33.1034 189.35 33.1315H183.739C183.543 33.1034 183.318 33.1315 183.122 33.1876C182.842 33.3278 182.505 33.5242 182.477 33.7487C182.449 34.0572 182.589 34.3939 182.842 34.5903C183.459 34.9269 183.936 35.4599 184.216 36.1052L177.259 44.353C177.259 44.0724 177.231 43.5955 177.231 43.0905C177.231 42.782 177.231 42.4453 177.259 42.1367H177.203C177.203 40.201 177.259 37.7884 177.343 36.8346C177.399 35.9649 177.904 35.1794 178.69 34.7305C179.082 34.5061 179.475 34.2256 179.307 33.6925C179.166 33.1595 178.69 33.1034 178.241 33.1034C176.249 33.1034 174.257 33.1034 172.265 33.1034C171.788 33.1034 171.199 33.1876 171.171 33.7487C171.227 34.1414 171.452 34.5061 171.788 34.7025C172.63 35.2074 173.163 36.1052 173.163 37.059C173.163 38.0689 173.191 41.0987 173.219 43.0344C173.191 44.0444 173.191 45.0263 173.163 46.0362C173.135 46.99 172.63 47.9158 171.788 48.3927C171.452 48.6171 171.227 48.9538 171.171 49.3465C171.199 49.9076 171.76 49.9918 172.265 49.9918C174.257 49.9918 176.249 49.9918 178.241 49.9918C178.69 49.9918 179.166 49.9357 179.307 49.4026C179.447 48.8696 179.082 48.561 178.69 48.3646C178.044 48 177.595 47.3828 177.427 46.6253L184.525 38.2653C184.525 39.4436 184.525 42.1367 184.525 43.4552C184.525 44.0444 184.525 44.6054 184.525 45.2226C184.525 46.6534 184.16 47.7755 182.87 48.561C182.589 48.7574 182.477 49.066 182.505 49.4026C182.533 49.6271 182.898 49.8234 183.15 49.9637C183.346 50.0198 183.571 50.0479 183.767 50.0198H189.378C189.518 50.0479 189.687 50.0479 189.827 49.9918C190.135 49.8234 190.64 49.6271 190.697 49.3746C190.64 49.0379 190.472 48.7013 190.164 48.5049Z" fill="url(#paint5_linear_125_199)"/>
<path id="Vector_7" d="M89.3103 41.0426H96.969C99.2133 41.0146 99.9147 40.201 99.578 37.9848C99.55 37.8445 99.5219 37.6762 99.4658 37.5359C98.4278 33.4681 93.9673 31.336 89.8434 32.9912C85.5792 34.7025 83.6996 39.2191 84.3168 43.1467C84.7095 45.5873 85.7475 47.5791 87.9077 48.8977C90.9655 50.7773 95.5944 50.3004 98.2034 47.8597C98.5961 47.495 98.9608 47.0181 99.1853 46.5412C99.2694 46.2326 99.2414 45.8959 99.045 45.6434C98.7645 45.4751 98.4839 45.4471 98.2034 45.5312C97.7545 45.7276 97.3057 45.9801 96.8849 46.2326C93.7148 47.9438 89.142 47.1583 88.4687 42.0806C88.3285 41.1548 88.3846 41.0426 89.3103 41.0426ZM92.7329 34.5342C94.1636 34.6183 95.2858 35.6844 95.5102 37.087C95.6224 38.097 95.2016 38.6581 94.1356 38.8544C94.0234 38.8825 93.9392 38.8825 93.827 38.8825H91.3863H89.0018C88.6932 38.8825 88.4407 38.8544 88.4687 38.4336C88.5248 36.3296 90.6289 34.3939 92.7329 34.5342Z" fill="url(#paint6_linear_125_199)"/>
<path id="Vector_8" d="M82.297 34.3939C82.5775 34.2256 82.8581 33.7487 82.802 33.4962C82.7458 33.2156 82.2689 33.0473 81.9323 32.879C81.792 32.8509 81.6237 32.8229 81.4554 32.8509H75.8727C75.6763 32.8229 75.4519 32.8509 75.2555 32.907C74.975 33.0473 74.6383 33.2437 74.6103 33.4681C74.5822 33.7767 74.7225 34.1133 74.975 34.3097C76.2935 35.0952 76.6862 36.2454 76.6301 37.6481C76.6301 38.1531 76.6301 39.3875 76.6301 40.6218H69.8411C69.8411 39.0228 69.8972 37.3115 69.9814 36.6101C70.0375 35.7405 70.5425 34.955 71.328 34.5061C71.7207 34.2817 72.1135 34.0011 71.9452 33.4681C71.7768 32.9351 71.328 32.879 70.8791 32.879C68.8873 32.879 66.8955 32.879 64.9037 32.879C64.4268 32.879 63.8376 32.9631 63.8096 33.5242C63.8657 33.917 64.0901 34.2817 64.4268 34.478C65.2684 34.983 65.7733 35.8807 65.8014 36.8346C65.8014 37.8164 65.8294 40.8743 65.8575 42.81C65.8294 43.8199 65.8294 44.8018 65.8014 45.8118C65.7733 46.7656 65.2684 47.6914 64.4268 48.1683C64.0901 48.3927 63.8657 48.7294 63.8096 49.1221C63.8376 49.6832 64.3987 49.7673 64.9037 49.7673C66.8955 49.7673 68.8873 49.7673 70.8791 49.7673C71.328 49.7673 71.8049 49.7112 71.9452 49.1782C72.1135 48.6452 71.7207 48.3647 71.328 48.1402C70.5425 47.6914 70.0375 46.8778 69.9814 46.0362C69.9253 45.419 69.8692 44.7738 69.8692 44.1566C69.8692 43.876 69.8411 43.3991 69.8411 42.8661C69.8411 42.6697 69.8411 42.4734 69.8411 42.305H76.6301C76.6301 42.6417 76.6301 42.9503 76.6301 43.2308C76.6301 43.8199 76.6301 44.381 76.6301 44.9982C76.6301 46.4289 76.2374 47.5511 74.975 48.3366C74.6944 48.533 74.5822 48.8416 74.6103 49.1782C74.6383 49.4026 74.975 49.6551 75.2555 49.7393C75.4519 49.7954 75.6763 49.8234 75.8727 49.7954C77.7523 49.7954 79.6038 49.7954 81.4834 49.7954C81.6798 49.7954 81.8762 49.7673 82.0726 49.7112C82.3811 49.6551 82.6617 49.4307 82.83 49.1502C82.8861 48.8696 82.6056 48.3927 82.325 48.2524C81.3432 47.6914 80.7821 46.6253 80.8382 45.4751C80.8382 44.4932 80.8101 43.4833 80.8101 42.5014C80.8101 40.7621 80.8101 38.125 80.8382 37.1993C80.6979 36.021 81.3151 34.983 82.297 34.3939Z" fill="url(#paint7_linear_125_199)"/>
<path id="Vector_9" d="M60.92 48.0561C60.3309 47.7194 59.9101 47.1583 59.7979 46.485C59.6576 45.8118 59.6015 45.0824 59.5734 44.4091C59.5454 39.7522 59.5734 35.1513 59.5734 30.4944C59.5734 30.1297 59.6015 29.7931 59.6576 29.4284C59.7137 28.8392 60.1064 28.3062 60.6675 28.0257C60.8358 27.9415 61.0042 27.8574 61.1725 27.7451C61.453 27.6049 61.5372 27.3243 61.4811 27.0438C61.425 26.7633 61.2005 26.5669 60.92 26.5108C60.7236 26.4827 60.4992 26.4547 60.2748 26.4547C59.1807 26.4547 58.0305 26.4547 56.9364 26.4547C56.2631 26.4547 55.5898 26.4547 54.9446 26.4547C54.4676 26.4266 54.0188 26.7352 53.8505 27.156C53.7944 27.2682 53.7382 27.3805 53.7102 27.4927L48.6605 39.163C48.5764 39.3594 48.4922 39.5558 48.38 39.7241H48.2117C48.1275 39.5277 48.0153 39.3313 47.9311 39.163C46.1918 35.2355 44.4805 31.336 42.7692 27.3805C42.5729 26.7633 41.9557 26.3705 41.3385 26.4266C39.5711 26.4547 37.8598 26.4266 36.0924 26.4266C35.868 26.4266 35.6716 26.4547 35.4472 26.4827C35.0545 26.5388 34.802 26.9035 34.8581 27.3243C34.8861 27.5488 35.0264 27.7171 35.2228 27.8293C35.4472 27.9696 35.6997 28.1098 35.9802 28.194C36.6535 28.3343 37.0743 29.0076 36.9621 29.6528C36.9621 29.8211 36.9621 29.9894 36.9621 30.1297C36.9621 31.8971 36.9621 33.6645 36.9341 35.4319C36.9341 37.9006 36.9341 40.3132 36.8779 42.782C36.8499 43.8199 36.7377 44.886 36.5413 45.952C36.4291 46.8497 35.9241 47.6633 35.1386 48.1402C35.0264 48.1963 34.9422 48.2805 34.8581 48.3646C34.5495 48.5891 34.4934 49.0379 34.7178 49.3185C34.83 49.4587 34.9983 49.599 35.1947 49.599C35.4192 49.6551 35.6436 49.6832 35.8961 49.6832C37.7196 49.6832 39.4869 49.6832 41.3104 49.6832C41.5349 49.6832 41.7312 49.6551 41.9557 49.599C42.2643 49.5429 42.5167 49.3185 42.6009 49.0099C42.657 48.7013 42.5167 48.3927 42.2082 48.2244C41.9837 48.0841 41.7312 47.9438 41.5068 47.8316C40.4688 47.4669 39.7114 46.5412 39.5711 45.4751C39.4589 44.8299 39.4028 44.1566 39.3747 43.5394C39.3186 41.9403 39.3186 40.2852 39.3186 38.6861C39.2906 36.0771 39.2906 33.412 39.2906 30.803C39.2906 30.6908 39.3186 30.5786 39.3747 30.4944C39.5431 30.6347 39.6553 30.803 39.7394 30.9994C41.1702 34.3378 42.6009 37.6762 44.0316 41.0426C44.5927 42.3892 45.1819 43.6797 45.7429 45.0543C46.0235 45.6995 46.3601 46.0362 47.0895 45.924C47.3139 45.8959 47.5103 45.8959 47.7347 45.924C48.0994 45.9801 48.4922 45.7557 48.5764 45.391C48.6325 45.2507 48.6886 45.1104 48.7447 44.9982C49.979 42.1928 51.1854 39.3594 52.4197 36.5821C53.2333 34.7305 53.9907 32.879 54.8043 31.0555C54.8884 30.8872 55.0007 30.7188 55.0848 30.5505C55.197 30.6908 55.2251 30.8311 55.2251 30.9994C55.2251 35.7405 55.197 40.4535 55.169 45.1665C55.169 45.5593 55.1129 45.9801 55.0287 46.3167C54.9165 47.1022 54.4676 47.7475 53.7382 48.1122C53.5699 48.1963 53.4297 48.3085 53.2894 48.4208C52.9808 48.6452 52.9247 49.066 53.1491 49.3746C53.2613 49.5149 53.4297 49.599 53.5699 49.6551C53.7944 49.7112 54.0188 49.7673 54.2713 49.7393C56.3192 49.7393 58.4232 49.7393 60.4711 49.7393C60.7517 49.7393 61.0042 49.6832 61.2566 49.599C61.5933 49.4868 61.7897 49.1221 61.7055 48.7574C61.6775 48.6452 61.5933 48.533 61.5091 48.4488C61.2566 48.3366 61.0883 48.1963 60.92 48.0561Z" fill="url(#paint8_linear_125_199)"/>
<path id="Vector_10" d="M129.567 11.9228C129.034 11.5862 128.642 12.1473 128.333 12.5681C125.78 16.187 123.508 19.9743 122.414 24.3226C121.965 26.1461 121.797 28.0257 121.488 29.8211C121.46 30.0456 121.432 31.3921 121.376 32.374C120.478 32.3179 119.552 32.4301 118.739 32.6546C118.655 31.8971 118.514 30.8311 118.514 30.7469C118.234 29.0917 118.094 27.3805 117.757 25.7253C117.56 24.6312 117.224 23.5371 116.915 22.471C116.803 21.8258 116.158 21.3489 115.513 21.4331C113.857 21.6014 112.146 21.8539 110.491 22.1063C110.21 22.1625 110.014 22.2747 109.846 22.443C107.826 24.1543 106.311 26.3986 105.553 28.9234C105.469 29.232 105.525 29.5686 105.722 29.8211C106.002 29.9614 106.339 29.9614 106.62 29.8211C107.517 29.2601 108.415 28.6429 109.2 27.9415C109.762 27.4646 110.323 26.9596 110.856 26.4547C110.8 26.7352 110.968 27.0719 111.276 27.6329C111.838 28.6709 113.633 31.2238 114.783 33.1315C115.064 33.5803 115.344 33.917 115.569 34.1975C113.717 35.6283 112.539 37.7603 112.258 40.0888C111.753 43.9602 113.352 47.523 116.494 49.0099C122.863 52.0677 129.343 47.6353 129.287 40.3132C129.203 37.7323 128.109 34.955 125.023 33.384C124.939 33.3278 124.826 33.2998 124.742 33.2437C125.275 32.7107 125.724 32.1215 126.145 31.4482C127.576 28.9795 129.091 26.5108 129.483 23.6493C129.82 21.2647 129.876 18.8241 130.044 16.4395C130.157 15.3454 130.185 14.2513 130.185 13.1572C130.185 12.7083 129.932 12.2314 129.567 11.9228ZM111.922 25.557C112.567 24.9678 113.24 24.3787 113.857 23.7615C114.138 23.5371 114.39 23.3407 114.895 22.9199C115.372 25.7533 115.821 28.3623 116.298 31.0274L115.989 31.1677C114.278 30.2419 112.791 27.2402 111.922 25.557ZM124.49 45.1946C123.957 46.6253 123.031 47.7194 121.376 47.8036C119.833 47.9158 118.739 47.1022 117.953 45.8118C116.915 44.0724 116.579 42.1928 116.551 39.9766C116.494 38.7422 116.747 37.5359 117.308 36.4699C118.655 33.945 121.712 33.7486 123.396 36.0491C124.237 37.2273 124.742 38.63 124.854 40.0888C125.079 41.8842 125.135 43.5675 124.49 45.1946ZM128.726 17.225C128.445 19.3571 128.305 21.5172 127.912 23.6774C127.576 26.0058 126.594 28.166 125.107 29.9894C124.742 30.3541 124.293 30.7469 123.845 30.9994L123.648 30.803C124.293 25.6131 124.939 20.4792 128.389 16.2431L128.67 16.2712C128.698 16.5798 128.726 16.8884 128.726 17.225Z" fill="url(#paint9_linear_125_199)"/>
<path id="Vector_11" d="M62.7716 60.8205L61.2286 65.4774H60.3028L59.1526 62.0549L58.0024 65.4774H57.0766L55.5337 60.8205H56.4595L57.6097 64.3553L58.7879 60.8205H59.6015L60.7517 64.3553L61.9299 60.8205H62.7716Z" fill="url(#paint10_linear_125_199)"/>
<path id="Vector_12" d="M66.3344 65.1969C65.9697 65.0005 65.6611 64.72 65.4367 64.3553C65.0159 63.5698 65.0159 62.644 65.4367 61.8866C65.6611 61.5219 65.9697 61.2413 66.3344 61.0449C67.148 60.6522 68.1018 60.6522 68.8873 61.0449C69.252 61.2413 69.5606 61.5219 69.785 61.8866C70.2058 62.6721 70.2058 63.5978 69.785 64.3553C69.5606 64.72 69.252 65.0005 68.8873 65.1969C68.0738 65.6457 67.1199 65.6457 66.3344 65.1969ZM68.4384 64.5236C68.719 64.3833 68.8873 64.187 69.0276 63.9345C69.3081 63.4014 69.3081 62.7843 69.0276 62.2793C68.8873 61.9988 68.6909 61.8304 68.4384 61.6902C67.9335 61.4096 67.2882 61.4096 66.7833 61.6902C66.5027 61.8304 66.3344 62.0268 66.1941 62.2793C65.9136 62.8123 65.9136 63.4295 66.1941 63.9345C66.3344 64.215 66.5308 64.3833 66.7833 64.5236C67.2882 64.8322 67.9335 64.8322 68.4384 64.5236Z" fill="url(#paint11_linear_125_199)"/>
<path id="Vector_13" d="M77.1349 60.8205V65.4494H76.4336L73.8807 62.3354V65.4494H73.0391V60.7925H73.7404L76.2933 63.9064V60.7925L77.1349 60.8205Z" fill="url(#paint12_linear_125_199)"/>
<path id="Vector_14" d="M80.3611 60.8205H82.381C82.8298 60.8205 83.2787 60.9047 83.7275 61.101C84.0922 61.2694 84.4008 61.5499 84.6253 61.9427C85.0461 62.7282 85.0461 63.5978 84.6253 64.3833C84.4008 64.72 84.0922 65.0286 83.7275 65.2249C83.3067 65.4213 82.8859 65.5055 82.381 65.5055H80.3611V60.8205ZM82.381 64.72C82.6895 64.72 82.9981 64.6639 83.2787 64.5236C83.5592 64.4114 83.7275 64.215 83.8678 63.9625C84.1483 63.4295 84.1483 62.8123 83.8678 62.3074C83.7275 62.0268 83.5312 61.8866 83.2787 61.7463C82.9981 61.606 82.6895 61.5499 82.381 61.5499H81.2588V64.748L82.381 64.72Z" fill="url(#paint13_linear_125_199)"/>
<path id="Vector_15" d="M91.3021 64.72V65.4213H87.8235V60.7644H91.218V61.4657H88.6932V62.7001H90.9375V63.4015H88.6932V64.6919L91.3021 64.72Z" fill="url(#paint14_linear_125_199)"/>
<path id="Vector_16" d="M97.3338 65.4494L96.38 64.0747H96.2116H95.1736V65.4494H94.332V60.7925H96.2677C96.6324 60.7925 96.9691 60.8486 97.3057 60.9888C97.5863 61.101 97.8107 61.2974 97.979 61.5499C98.1473 61.8304 98.2596 62.111 98.2034 62.4196C98.2034 62.7282 98.1193 63.0368 97.9229 63.3173C97.7546 63.5978 97.5021 63.7662 97.1655 63.8784L98.2315 65.3933L97.3338 65.4494ZM96.9971 61.7743C96.7166 61.606 96.4641 61.4938 96.1555 61.5499H95.1456V63.4295H96.1555C96.4641 63.4576 96.7447 63.3734 96.9971 63.149C97.3618 62.7843 97.3899 62.1951 97.0252 61.8024C97.0252 61.8024 96.9971 61.8024 96.9971 61.7743Z" fill="url(#paint15_linear_125_199)"/>
<path id="Vector_17" d="M115.541 60.8205L113.998 65.4774H113.072L111.922 62.0549L110.771 65.4774H109.846L108.303 60.8205H109.2L110.351 64.3553L111.529 60.8205H112.342L113.493 64.3553L114.671 60.8205H115.541Z" fill="url(#paint16_linear_125_199)"/>
<path id="Vector_18" d="M121.123 64.3833H118.795L118.346 65.4494H117.476L119.552 60.7925H120.394L122.47 65.4494H121.572L121.123 64.3833ZM120.815 63.71L119.945 61.6902L119.075 63.71H120.815Z" fill="url(#paint17_linear_125_199)"/>
<path id="Vector_19" d="M125.051 60.8205H125.92V64.72H128.361V65.4774H125.079L125.051 60.8205Z" fill="url(#paint18_linear_125_199)"/>
<path id="Vector_20" d="M130.998 60.8205H131.868V64.72H134.309V65.4774H131.026L130.998 60.8205Z" fill="url(#paint19_linear_125_199)"/>
<path id="Vector_21" d="M139.947 61.0169C140.228 61.1291 140.452 61.3255 140.621 61.578C140.929 62.111 140.929 62.8123 140.621 63.3453C140.452 63.6259 140.228 63.7942 139.947 63.9064C139.611 64.0467 139.274 64.1028 138.909 64.1028H137.871V65.4494H137.03V60.7925H138.965C139.246 60.7925 139.611 60.8766 139.947 61.0169ZM139.695 63.1209C140.06 62.7562 140.088 62.1671 139.723 61.7743L139.695 61.7463C139.414 61.578 139.162 61.4657 138.853 61.5219H137.843V63.4015H138.853C139.162 63.4015 139.47 63.3453 139.695 63.1209Z" fill="url(#paint20_linear_125_199)"/>
<path id="Vector_22" d="M146.484 64.3833H144.155L143.707 65.4494H142.837L144.913 60.7925H145.755L147.83 65.4494H146.933L146.484 64.3833ZM146.231 63.71L145.362 61.6902L144.492 63.71H146.231Z" fill="url(#paint21_linear_125_199)"/>
<path id="Vector_23" d="M153.413 61.0169C153.694 61.1291 153.918 61.3255 154.086 61.578C154.395 62.111 154.395 62.8123 154.086 63.3453C153.918 63.6259 153.694 63.7942 153.413 63.9064C153.077 64.0467 152.74 64.1028 152.375 64.1028H151.337V65.4494H150.468V60.7925H152.403C152.712 60.7925 153.105 60.8766 153.413 61.0169ZM153.161 63.1209C153.525 62.7562 153.553 62.1671 153.189 61.7743L153.161 61.7463C152.88 61.578 152.628 61.4657 152.319 61.5219H151.309V63.4015H152.319C152.628 63.4015 152.936 63.3453 153.161 63.1209Z" fill="url(#paint22_linear_125_199)"/>
<path id="Vector_24" d="M160.679 64.72V65.4213H157.2V60.7644H160.595V61.4657H158.07V62.7001H160.314V63.4015H158.07V64.6919L160.679 64.72Z" fill="url(#paint23_linear_125_199)"/>
<path id="Vector_25" d="M166.683 65.4494L165.729 64.0747H165.56H164.523V65.4494H163.681V60.7925H165.617C165.981 60.7925 166.318 60.8486 166.655 60.9888C166.935 61.101 167.16 61.2974 167.328 61.5499C167.665 62.0829 167.665 62.8123 167.328 63.3453C167.16 63.6259 166.907 63.7942 166.57 63.9064L167.636 65.4213L166.683 65.4494ZM166.346 61.7743C166.065 61.606 165.813 61.4938 165.504 61.5499H164.494V63.4295H165.504C165.813 63.4576 166.094 63.3734 166.346 63.149C166.711 62.7843 166.739 62.1951 166.374 61.8024C166.346 61.8024 166.346 61.8024 166.346 61.7743Z" fill="url(#paint24_linear_125_199)"/>
</g>
</g>
</g>
</g>
<defs>
<filter id="filter0_d_125_199" x="-96" y="-9" width="1906" height="108.453" filterUnits="userSpaceOnUse" color-interpolation-filters="sRGB">
<feFlood flood-opacity="0" result="BackgroundImageFix"/>
<feColorMatrix in="SourceAlpha" type="matrix" values="0 0 0 0 0 0 0 0 0 0 0 0 0 0 0 0 0 0 127 0" result="hardAlpha"/>
<feOffset dy="1"/>
<feGaussianBlur stdDeviation="1.5"/>
<feComposite in2="hardAlpha" operator="out"/>
<feColorMatrix type="matrix" values="0 0 0 0 0 0 0 0 0 0 0 0 0 0 0 0 0 0 0.1 0"/>
<feBlend mode="normal" in2="BackgroundImageFix" result="effect1_dropShadow_125_199"/>
<feBlend mode="normal" in="SourceGraphic" in2="effect1_dropShadow_125_199" result="shape"/>
</filter>
<linearGradient id="paint0_linear_125_199" x1="-0.882403" y1="52.5197" x2="191.03" y2="-37.0394" gradientUnits="userSpaceOnUse">
<stop offset="9.58467e-09" stop-color="#F4B6D0"/>
<stop offset="0.24" stop-color="#DE82B4"/>
<stop offset="0.33" stop-color="#D28AB8"/>
<stop offset="0.48" stop-color="#A683BA"/>
<stop offset="0.53" stop-color="#A07EB9"/>
<stop offset="0.75" stop-color="#6480B1"/>
<stop offset="1" stop-color="#41A9C5"/>
</linearGradient>
<linearGradient id="paint1_linear_125_199" x1="1.68544" y1="58.0223" x2="193.598" y2="-31.5368" gradientUnits="userSpaceOnUse">
<stop offset="9.58467e-09" stop-color="#F4B6D0"/>
<stop offset="0.24" stop-color="#DE82B4"/>
<stop offset="0.33" stop-color="#D28AB8"/>
<stop offset="0.48" stop-color="#A683BA"/>
<stop offset="0.53" stop-color="#A07EB9"/>
<stop offset="0.75" stop-color="#6480B1"/>
<stop offset="1" stop-color="#41A9C5"/>
</linearGradient>
<linearGradient id="paint2_linear_125_199" x1="25.8538" y1="109.817" x2="217.77" y2="20.2583" gradientUnits="userSpaceOnUse">
<stop offset="9.58467e-09" stop-color="#F4B6D0"/>
<stop offset="0.24" stop-color="#DE82B4"/>
<stop offset="0.33" stop-color="#D28AB8"/>
<stop offset="0.48" stop-color="#A683BA"/>
<stop offset="0.53" stop-color="#A07EB9"/>
<stop offset="0.75" stop-color="#6480B1"/>
<stop offset="1" stop-color="#41A9C5"/>
</linearGradient>
<linearGradient id="paint3_linear_125_199" x1="23.608" y1="105.002" x2="215.525" y2="15.4434" gradientUnits="userSpaceOnUse">
<stop offset="9.58467e-09" stop-color="#F4B6D0"/>
<stop offset="0.24" stop-color="#DE82B4"/>
<stop offset="0.33" stop-color="#D28AB8"/>
<stop offset="0.48" stop-color="#A683BA"/>
<stop offset="0.53" stop-color="#A07EB9"/>
<stop offset="0.75" stop-color="#6480B1"/>
<stop offset="1" stop-color="#41A9C5"/>
</linearGradient>
<linearGradient id="paint4_linear_125_199" x1="19.1097" y1="95.361" x2="211.023" y2="5.80192" gradientUnits="userSpaceOnUse">
<stop offset="9.58467e-09" stop-color="#F4B6D0"/>
<stop offset="0.24" stop-color="#DE82B4"/>
<stop offset="0.33" stop-color="#D28AB8"/>
<stop offset="0.48" stop-color="#A683BA"/>
<stop offset="0.53" stop-color="#A07EB9"/>
<stop offset="0.75" stop-color="#6480B1"/>
<stop offset="1" stop-color="#41A9C5"/>
</linearGradient>
<linearGradient id="paint5_linear_125_199" x1="27.4037" y1="113.14" x2="219.32" y2="23.5767" gradientUnits="userSpaceOnUse">
<stop offset="9.58467e-09" stop-color="#F4B6D0"/>
<stop offset="0.24" stop-color="#DE82B4"/>
<stop offset="0.33" stop-color="#D28AB8"/>
<stop offset="0.48" stop-color="#A683BA"/>
<stop offset="0.53" stop-color="#A07EB9"/>
<stop offset="0.75" stop-color="#6480B1"/>
<stop offset="1" stop-color="#41A9C5"/>
</linearGradient>
<linearGradient id="paint6_linear_125_199" x1="11.5219" y1="79.1071" x2="203.439" y2="-10.4558" gradientUnits="userSpaceOnUse">
<stop offset="9.58467e-09" stop-color="#F4B6D0"/>
<stop offset="0.24" stop-color="#DE82B4"/>
<stop offset="0.33" stop-color="#D28AB8"/>
<stop offset="0.48" stop-color="#A683BA"/>
<stop offset="0.53" stop-color="#A07EB9"/>
<stop offset="0.75" stop-color="#6480B1"/>
<stop offset="1" stop-color="#41A9C5"/>
</linearGradient>
<linearGradient id="paint7_linear_125_199" x1="8.06983" y1="71.7035" x2="199.983" y2="-17.8595" gradientUnits="userSpaceOnUse">
<stop offset="9.58467e-09" stop-color="#F4B6D0"/>
<stop offset="0.24" stop-color="#DE82B4"/>
<stop offset="0.33" stop-color="#D28AB8"/>
<stop offset="0.48" stop-color="#A683BA"/>
<stop offset="0.53" stop-color="#A07EB9"/>
<stop offset="0.75" stop-color="#6480B1"/>
<stop offset="1" stop-color="#41A9C5"/>
</linearGradient>
<linearGradient id="paint8_linear_125_199" x1="2.38032" y1="59.5123" x2="194.297" y2="-30.0468" gradientUnits="userSpaceOnUse">
<stop offset="9.58467e-09" stop-color="#F4B6D0"/>
<stop offset="0.24" stop-color="#DE82B4"/>
<stop offset="0.33" stop-color="#D28AB8"/>
<stop offset="0.48" stop-color="#A683BA"/>
<stop offset="0.53" stop-color="#A07EB9"/>
<stop offset="0.75" stop-color="#6480B1"/>
<stop offset="1" stop-color="#41A9C5"/>
</linearGradient>
<linearGradient id="paint9_linear_125_199" x1="13.4956" y1="83.3351" x2="205.412" y2="-6.22776" gradientUnits="userSpaceOnUse">
<stop offset="9.58467e-09" stop-color="#F4B6D0"/>
<stop offset="0.24" stop-color="#DE82B4"/>
<stop offset="0.33" stop-color="#D28AB8"/>
<stop offset="0.48" stop-color="#A683BA"/>
<stop offset="0.53" stop-color="#A07EB9"/>
<stop offset="0.75" stop-color="#6480B1"/>
<stop offset="1" stop-color="#41A9C5"/>
</linearGradient>
<linearGradient id="paint10_linear_125_199" x1="13.7855" y1="83.9548" x2="205.702" y2="-5.60826" gradientUnits="userSpaceOnUse">
<stop offset="9.58467e-09" stop-color="#F4B6D0"/>
<stop offset="0.24" stop-color="#DE82B4"/>
<stop offset="0.33" stop-color="#D28AB8"/>
<stop offset="0.48" stop-color="#A683BA"/>
<stop offset="0.53" stop-color="#A07EB9"/>
<stop offset="0.75" stop-color="#6480B1"/>
<stop offset="1" stop-color="#41A9C5"/>
</linearGradient>
<linearGradient id="paint11_linear_125_199" x1="15.4311" y1="87.4781" x2="207.344" y2="-2.08487" gradientUnits="userSpaceOnUse">
<stop offset="9.58467e-09" stop-color="#F4B6D0"/>
<stop offset="0.24" stop-color="#DE82B4"/>
<stop offset="0.33" stop-color="#D28AB8"/>
<stop offset="0.48" stop-color="#A683BA"/>
<stop offset="0.53" stop-color="#A07EB9"/>
<stop offset="0.75" stop-color="#6480B1"/>
<stop offset="1" stop-color="#41A9C5"/>
</linearGradient>
<linearGradient id="paint12_linear_125_199" x1="16.7639" y1="90.3419" x2="208.681" y2="0.778945" gradientUnits="userSpaceOnUse">
<stop offset="9.58467e-09" stop-color="#F4B6D0"/>
<stop offset="0.24" stop-color="#DE82B4"/>
<stop offset="0.33" stop-color="#D28AB8"/>
<stop offset="0.48" stop-color="#A683BA"/>
<stop offset="0.53" stop-color="#A07EB9"/>
<stop offset="0.75" stop-color="#6480B1"/>
<stop offset="1" stop-color="#41A9C5"/>
</linearGradient>
<linearGradient id="paint13_linear_125_199" x1="17.9693" y1="92.9211" x2="209.886" y2="3.36201" gradientUnits="userSpaceOnUse">
<stop offset="9.58467e-09" stop-color="#F4B6D0"/>
<stop offset="0.24" stop-color="#DE82B4"/>
<stop offset="0.33" stop-color="#D28AB8"/>
<stop offset="0.48" stop-color="#A683BA"/>
<stop offset="0.53" stop-color="#A07EB9"/>
<stop offset="0.75" stop-color="#6480B1"/>
<stop offset="1" stop-color="#41A9C5"/>
</linearGradient>
<linearGradient id="paint14_linear_125_199" x1="19.3438" y1="95.8671" x2="211.26" y2="6.30423" gradientUnits="userSpaceOnUse">
<stop offset="9.58467e-09" stop-color="#F4B6D0"/>
<stop offset="0.24" stop-color="#DE82B4"/>
<stop offset="0.33" stop-color="#D28AB8"/>
<stop offset="0.48" stop-color="#A683BA"/>
<stop offset="0.53" stop-color="#A07EB9"/>
<stop offset="0.75" stop-color="#6480B1"/>
<stop offset="1" stop-color="#41A9C5"/>
</linearGradient>
<linearGradient id="paint15_linear_125_199" x1="20.5437" y1="98.4381" x2="212.46" y2="8.87918" gradientUnits="userSpaceOnUse">
<stop offset="9.58467e-09" stop-color="#F4B6D0"/>
<stop offset="0.24" stop-color="#DE82B4"/>
<stop offset="0.33" stop-color="#D28AB8"/>
<stop offset="0.48" stop-color="#A683BA"/>
<stop offset="0.53" stop-color="#A07EB9"/>
<stop offset="0.75" stop-color="#6480B1"/>
<stop offset="1" stop-color="#41A9C5"/>
</linearGradient>
<linearGradient id="paint16_linear_125_199" x1="23.2206" y1="104.173" x2="215.137" y2="14.6106" gradientUnits="userSpaceOnUse">
<stop offset="9.58467e-09" stop-color="#F4B6D0"/>
<stop offset="0.24" stop-color="#DE82B4"/>
<stop offset="0.33" stop-color="#D28AB8"/>
<stop offset="0.48" stop-color="#A683BA"/>
<stop offset="0.53" stop-color="#A07EB9"/>
<stop offset="0.75" stop-color="#6480B1"/>
<stop offset="1" stop-color="#41A9C5"/>
</linearGradient>
<linearGradient id="paint17_linear_125_199" x1="24.9768" y1="107.937" x2="216.893" y2="18.3744" gradientUnits="userSpaceOnUse">
<stop offset="9.58467e-09" stop-color="#F4B6D0"/>
<stop offset="0.24" stop-color="#DE82B4"/>
<stop offset="0.33" stop-color="#D28AB8"/>
<stop offset="0.48" stop-color="#A683BA"/>
<stop offset="0.53" stop-color="#A07EB9"/>
<stop offset="0.75" stop-color="#6480B1"/>
<stop offset="1" stop-color="#41A9C5"/>
</linearGradient>
<linearGradient id="paint18_linear_125_199" x1="26.0054" y1="110.139" x2="217.922" y2="20.5803" gradientUnits="userSpaceOnUse">
<stop offset="9.58467e-09" stop-color="#F4B6D0"/>
<stop offset="0.24" stop-color="#DE82B4"/>
<stop offset="0.33" stop-color="#D28AB8"/>
<stop offset="0.48" stop-color="#A683BA"/>
<stop offset="0.53" stop-color="#A07EB9"/>
<stop offset="0.75" stop-color="#6480B1"/>
<stop offset="1" stop-color="#41A9C5"/>
</linearGradient>
<linearGradient id="paint19_linear_125_199" x1="27.0704" y1="112.424" x2="218.987" y2="22.865" gradientUnits="userSpaceOnUse">
<stop offset="9.58467e-09" stop-color="#F4B6D0"/>
<stop offset="0.24" stop-color="#DE82B4"/>
<stop offset="0.33" stop-color="#D28AB8"/>
<stop offset="0.48" stop-color="#A683BA"/>
<stop offset="0.53" stop-color="#A07EB9"/>
<stop offset="0.75" stop-color="#6480B1"/>
<stop offset="1" stop-color="#41A9C5"/>
</linearGradient>
<linearGradient id="paint20_linear_125_199" x1="27.9034" y1="114.204" x2="219.816" y2="24.6446" gradientUnits="userSpaceOnUse">
<stop offset="9.58467e-09" stop-color="#F4B6D0"/>
<stop offset="0.24" stop-color="#DE82B4"/>
<stop offset="0.33" stop-color="#D28AB8"/>
<stop offset="0.48" stop-color="#A683BA"/>
<stop offset="0.53" stop-color="#A07EB9"/>
<stop offset="0.75" stop-color="#6480B1"/>
<stop offset="1" stop-color="#41A9C5"/>
</linearGradient>
<linearGradient id="paint21_linear_125_199" x1="29.513" y1="117.66" x2="221.43" y2="28.0971" gradientUnits="userSpaceOnUse">
<stop offset="9.58467e-09" stop-color="#F4B6D0"/>
<stop offset="0.24" stop-color="#DE82B4"/>
<stop offset="0.33" stop-color="#D28AB8"/>
<stop offset="0.48" stop-color="#A683BA"/>
<stop offset="0.53" stop-color="#A07EB9"/>
<stop offset="0.75" stop-color="#6480B1"/>
<stop offset="1" stop-color="#41A9C5"/>
</linearGradient>
<linearGradient id="paint22_linear_125_199" x1="30.3081" y1="119.362" x2="222.225" y2="29.8028" gradientUnits="userSpaceOnUse">
<stop offset="9.58467e-09" stop-color="#F4B6D0"/>
<stop offset="0.24" stop-color="#DE82B4"/>
<stop offset="0.33" stop-color="#D28AB8"/>
<stop offset="0.48" stop-color="#A683BA"/>
<stop offset="0.53" stop-color="#A07EB9"/>
<stop offset="0.75" stop-color="#6480B1"/>
<stop offset="1" stop-color="#41A9C5"/>
</linearGradient>
<linearGradient id="paint23_linear_125_199" x1="31.7517" y1="122.451" x2="223.665" y2="32.8916" gradientUnits="userSpaceOnUse">
<stop offset="9.58467e-09" stop-color="#F4B6D0"/>
<stop offset="0.24" stop-color="#DE82B4"/>
<stop offset="0.33" stop-color="#D28AB8"/>
<stop offset="0.48" stop-color="#A683BA"/>
<stop offset="0.53" stop-color="#A07EB9"/>
<stop offset="0.75" stop-color="#6480B1"/>
<stop offset="1" stop-color="#41A9C5"/>
</linearGradient>
<linearGradient id="paint24_linear_125_199" x1="32.9517" y1="125.025" x2="224.868" y2="35.4625" gradientUnits="userSpaceOnUse">
<stop offset="9.58467e-09" stop-color="#F4B6D0"/>
<stop offset="0.24" stop-color="#DE82B4"/>
<stop offset="0.33" stop-color="#D28AB8"/>
<stop offset="0.48" stop-color="#A683BA"/>
<stop offset="0.53" stop-color="#A07EB9"/>
<stop offset="0.75" stop-color="#6480B1"/>
<stop offset="1" stop-color="#41A9C5"/>
</linearGradient>
</defs>
</svg>
