<svg width="21" height="21" viewBox="0 0 21 21" fill="none" xmlns="http://www.w3.org/2000/svg">
<g clip-path="url(#clip0_447_1342)">
<path fill-rule="evenodd" clip-rule="evenodd" d="M2.47431 0.670262C2.70397 0.440954 2.97973 0.26307 3.28334 0.148399C3.58694 0.0337283 3.91144 -0.0151112 4.23535 0.00511735C4.55925 0.0253459 4.87516 0.11418 5.16213 0.265734C5.44911 0.417288 5.7006 0.6281 5.89994 0.8842L8.25588 3.91082C8.68769 4.46601 8.83994 5.1892 8.66931 5.8717L7.95138 8.74607C7.91426 8.89495 7.91626 9.0509 7.9572 9.19877C7.99813 9.34664 8.07661 9.48142 8.185 9.59001L11.4098 12.8148C11.5185 12.9234 11.6535 13.002 11.8017 13.043C11.9498 13.0839 12.106 13.0858 12.2551 13.0485L15.1281 12.3305C15.4649 12.2463 15.8165 12.2398 16.1562 12.3114C16.4959 12.383 16.8149 12.5309 17.089 12.7439L20.1156 15.0986C21.2037 15.9451 21.3034 17.5529 20.3296 18.5255L18.9724 19.8826C18.0012 20.8539 16.5496 21.2804 15.1964 20.804C11.7329 19.5854 8.5883 17.6026 5.99575 15.0028C3.39607 12.4106 1.4133 9.26643 0.194502 5.80345C-0.280623 4.45157 0.145939 2.99864 1.11719 2.02739L2.47431 0.670262Z" fill="white"/>
</g>
<defs>
<clipPath id="clip0_447_1342">
<rect width="21" height="21" fill="white"/>
</clipPath>
</defs>
</svg>
