<svg width="26" height="26" viewBox="0 0 33 30" fill="none" xmlns="http://www.w3.org/2000/svg">
<g id="truck" clip-path="url(#clip0_135_311)">
<path id="Vector" d="M0.181885 6.71571C0.181885 5.98335 0.505139 5.28099 1.08053 4.76313C1.65593 4.24527 2.43633 3.95435 3.25007 3.95435H21.6592C22.4729 3.95435 23.2533 4.24527 23.8287 4.76313C24.4041 5.28099 24.7273 5.98335 24.7273 6.71571V9.47707H26.8137C27.2734 9.47744 27.7271 9.57077 28.1414 9.75016C28.5556 9.92956 28.9197 10.1904 29.2069 10.5135L32.2362 13.9192C32.6721 14.4092 32.9094 15.0183 32.9092 15.646V19.6021C32.9092 20.3344 32.5859 21.0368 32.0105 21.5547C31.4351 22.0725 30.6547 22.3634 29.841 22.3634H28.8182C28.8182 23.3399 28.3872 24.2764 27.62 24.9669C26.8529 25.6573 25.8123 26.0453 24.7273 26.0453C23.6424 26.0453 22.6018 25.6573 21.8346 24.9669C21.0674 24.2764 20.6364 23.3399 20.6364 22.3634H10.4092C10.4103 22.8542 10.3025 23.3402 10.092 23.7929C9.88142 24.2456 9.57245 24.6559 9.18321 24.9996C8.79397 25.3433 8.33231 25.6134 7.82538 25.7942C7.31845 25.975 6.77647 26.0628 6.2313 26.0524C5.68614 26.0419 5.14879 25.9335 4.65086 25.7335C4.15292 25.5335 3.70444 25.2459 3.33178 24.8876C2.95912 24.5293 2.6698 24.1076 2.48084 23.6473C2.29188 23.1869 2.20708 22.6972 2.23143 22.207C1.63221 22.0171 1.11323 21.6646 0.746112 21.198C0.378996 20.7314 0.181851 20.1738 0.181885 19.6021L0.181885 6.71571ZM2.8287 20.4415C3.19852 19.8966 3.71952 19.4477 4.3405 19.1388C4.96147 18.83 5.66104 18.6719 6.37046 18.6801C7.07988 18.6882 7.77473 18.8624 8.38672 19.1854C8.99871 19.5085 9.50677 19.9693 9.86098 20.5225H21.1846C21.5444 19.9634 22.0606 19.4988 22.6819 19.175V6.71571C22.6819 6.47159 22.5741 6.23747 22.3823 6.06485C22.1905 5.89223 21.9304 5.79525 21.6592 5.79525H3.25007C2.97882 5.79525 2.71869 5.89223 2.52689 6.06485C2.33509 6.23747 2.22734 6.47159 2.22734 6.71571V19.6021C2.22718 19.7792 2.28383 19.9527 2.39051 20.1016C2.49718 20.2505 2.64933 20.3685 2.8287 20.4415ZM24.7273 18.6816C25.4454 18.6816 26.1509 18.8518 26.7727 19.1749C27.3946 19.4981 27.911 19.9628 28.2701 20.5225H29.841C30.1122 20.5225 30.3724 20.4256 30.5642 20.2529C30.756 20.0803 30.8637 19.8462 30.8637 19.6021V15.6441C30.8633 15.4352 30.7839 15.2327 30.6387 15.0698L27.6114 11.6641C27.5158 11.5563 27.3944 11.4692 27.2563 11.4093C27.1183 11.3494 26.967 11.3182 26.8137 11.318H24.7273V18.6816ZM6.31825 20.5225C5.77576 20.5225 5.25549 20.7165 4.87189 21.0617C4.4883 21.407 4.27279 21.8752 4.27279 22.3634C4.27279 22.8517 4.4883 23.3199 4.87189 23.6652C5.25549 24.0104 5.77576 24.2043 6.31825 24.2043C6.86074 24.2043 7.38101 24.0104 7.7646 23.6652C8.1482 23.3199 8.3637 22.8517 8.3637 22.3634C8.3637 21.8752 8.1482 21.407 7.7646 21.0617C7.38101 20.7165 6.86074 20.5225 6.31825 20.5225ZM24.7273 20.5225C24.1849 20.5225 23.6646 20.7165 23.281 21.0617C22.8974 21.407 22.6819 21.8752 22.6819 22.3634C22.6819 22.8517 22.8974 23.3199 23.281 23.6652C23.6646 24.0104 24.1849 24.2043 24.7273 24.2043C25.2698 24.2043 25.7901 24.0104 26.1737 23.6652C26.5573 23.3199 26.7728 22.8517 26.7728 22.3634C26.7728 21.8752 26.5573 21.407 26.1737 21.0617C25.7901 20.7165 25.2698 20.5225 24.7273 20.5225Z" fill="white"/>
</g>
<defs>
<clipPath id="clip0_135_311">
<rect width="32.7273" height="29.4545" fill="white" transform="translate(0.181885 0.272461)"/>
</clipPath>
</defs>
</svg>
